<svg preserveAspectRatio="none" width="100%" height="100%" overflow="visible" style="display: block;" viewBox="0 0 95 29.2991" fill="none" xmlns="http://www.w3.org/2000/svg">
<g id="IDN_Live 1" clip-path="url(#clip0_0_5)">
<path id="Vector" d="M47.9383 2.61352V15.6772C47.9383 19.6746 51.1801 22.9164 55.1775 22.9164H69.6866V27.5614C69.6866 29.0454 71.4289 29.8433 72.5546 28.8758L79.4738 22.9164H91.6474L94.7656 20.3028V7.21991C94.7656 3.23027 91.5356 3.42253e-06 87.5457 3.42253e-06H51.0567L47.9383 2.61352Z" fill="var(--fill-0, black)"/>
<path id="Vector_2" d="M53.0343 1.97751H87.2065C90.3015 1.97751 92.8115 4.48695 92.8115 7.58229V18.3293H81.5247L74.8406 24.5123V18.3254H58.0802C55.2932 18.3254 53.0381 16.0665 53.0381 13.2834V1.97751H53.0343Z" fill="var(--fill-0, white)"/>
<path id="Vector_3" d="M56.2526 6.13658C57.0467 6.13658 57.6904 5.49284 57.6904 4.69877C57.6904 3.90468 57.0467 3.26095 56.2526 3.26095C55.4585 3.26095 54.8148 3.90468 54.8148 4.69877C54.8148 5.49284 55.4585 6.13658 56.2526 6.13658Z" fill="var(--fill-0, #EB2C2C)"/>
<path id="Vector_4" d="M66.8376 12.478V15.2688H59.8913V4.87646H62.9636V12.4741H66.8376V12.478Z" fill="var(--fill-0, #EB2C2C)"/>
<path id="Vector_5" d="M70.4574 4.87668V15.2652H67.3852V4.87668H70.4574Z" fill="var(--fill-0, #EB2C2C)"/>
<path id="Vector_6" d="M81.5588 4.87624L78.0856 15.2647H74.2849L70.8117 4.87624H74.1346L76.1814 12.2812L78.2283 4.87624H81.5588Z" fill="var(--fill-0, #EB2C2C)"/>
<path id="Vector_7" d="M88.967 12.7438V15.2647H81.9016V4.87624H88.817V7.41266H84.9738V8.82349H88.3429V11.2288H84.9738V12.7438H88.967Z" fill="var(--fill-0, #EB2C2C)"/>
<path id="Vector_8" d="M4.4021 2.37844L2.4863 1.26829C2.36681 1.1989 2.22418 1.1989 2.10468 1.26829L0.188882 2.37844C0.0732399 2.44783 0 2.57118 0 2.7061V18.7109C0 18.8459 0.0732399 18.9731 0.188882 19.0386L2.10468 20.1488C2.22418 20.2181 2.36681 20.2181 2.4863 20.1488L4.4021 19.0386C4.51775 18.9692 4.59099 18.8459 4.59099 18.7109V2.7061C4.59099 2.57118 4.51775 2.44783 4.4021 2.37844Z" fill="var(--fill-0, white)"/>
<path id="Vector_9" d="M40.8249 2.37844L38.909 1.26829C38.7895 1.1989 38.647 1.1989 38.5275 1.26829L36.6116 2.37844C36.496 2.44783 36.4228 2.57118 36.4228 2.7061V11.2867L29.835 2.65599L29.7001 2.47866C29.6693 2.44012 29.6307 2.40543 29.5845 2.3823C29.5652 2.37074 29.542 2.35532 29.519 2.34375L29.5112 2.33989L27.6725 1.27214C27.553 1.20275 27.4104 1.20275 27.2909 1.27214L25.3751 2.3823C25.2595 2.45168 25.1863 2.57503 25.1863 2.70995V18.7148C25.1863 18.8497 25.2595 18.9769 25.3751 19.0424L27.2909 20.1526C27.4104 20.222 27.553 20.222 27.6725 20.1526L29.5883 19.0424C29.704 18.9731 29.7772 18.8497 29.7772 18.7148V10.138L36.5346 18.9885L36.5461 18.9846C36.5693 19.0077 36.5924 19.0232 36.6194 19.0386L38.5352 20.1488C38.6547 20.2181 38.7973 20.2181 38.9168 20.1488L40.8326 19.0386C40.9483 18.9692 41.0215 18.8459 41.0215 18.7109V2.7061C41.0176 2.57118 40.9444 2.44398 40.8249 2.37844Z" fill="var(--fill-0, white)"/>
<path id="Vector_10" d="M15.2995 1.21798H9.17051C9.10499 1.21798 9.03947 1.23725 8.98158 1.26809L7.06582 2.37825C6.95018 2.44763 6.87694 2.57098 6.87694 2.7059V18.7107C6.87694 18.8457 6.95018 18.9728 7.06582 19.0384L8.98158 20.1485C9.04719 20.1871 9.12035 20.2025 9.1936 20.1987H15.3033C19.4935 20.1987 22.8895 16.8027 22.8895 12.6125V8.80408C22.8933 4.614 19.4935 1.21798 15.2995 1.21798ZM18.3023 12.0729C18.3023 14.4281 16.3904 16.3401 14.0351 16.3401H11.4679V5.07656H14.0351C16.3904 5.07656 18.3023 6.98851 18.3023 9.34374V12.0729Z" fill="var(--fill-0, white)"/>
</g>
<defs>
<clipPath id="clip0_0_5">
<rect width="95" height="29.2991" fill="white"/>
</clipPath>
</defs>
</svg>
