<svg preserveAspectRatio="none" width="100%" height="100%" overflow="visible" style="display: block;" viewBox="0 0 95 13.5715" fill="none" xmlns="http://www.w3.org/2000/svg">
<g id="Group 1">
<path id="Vector" fill-rule="evenodd" clip-rule="evenodd" d="M2.00188 7.78711C1.87907 7.78711 1.77985 7.85603 1.77985 7.94089V9.30325C1.91957 9.31805 2.06774 9.33221 2.22437 9.34448V7.94089C2.22437 7.85603 2.1247 7.78711 2.00188 7.78711Z" fill="var(--fill-0, #00A63C)"/>
<path id="Vector_2" fill-rule="evenodd" clip-rule="evenodd" d="M4.9524 7.78711C4.86146 7.78711 4.78766 7.85603 4.78766 7.94089V8.7097C4.36661 8.66819 3.92085 8.64424 3.45038 8.64424C3.07907 8.64424 2.71765 8.65742 2.376 8.68356C2.2854 8.69065 2.21786 8.7648 2.22543 8.84904C2.23268 8.93362 2.31406 8.99511 2.40301 8.98958C3.16243 8.93114 4.04737 8.94162 4.78766 9.01572V9.34448C4.90397 9.33221 5.01368 9.31805 5.11713 9.30325V7.94089C5.11713 7.85603 5.04333 7.78711 4.9524 7.78711Z" fill="var(--fill-0, #00A63C)"/>
<path id="Vector_3" fill-rule="evenodd" clip-rule="evenodd" d="M4.89466 10.4567C4.77185 10.4567 4.67218 10.5312 4.67218 10.6234V11.5278L5.11714 11.7916V10.6234C5.11714 10.5312 5.01747 10.4567 4.89466 10.4567Z" fill="var(--fill-0, #00A63C)"/>
<path id="Vector_4" fill-rule="evenodd" clip-rule="evenodd" d="M2.00188 10.4567C1.87907 10.4567 1.77985 10.5312 1.77985 10.6231V11.7916L2.22437 11.5288V10.6231C2.22437 10.5312 2.1247 10.4567 2.00188 10.4567Z" fill="var(--fill-0, #00A63C)"/>
<path id="Vector_5" fill-rule="evenodd" clip-rule="evenodd" d="M4.89466 6.22937C4.77185 6.22937 4.67218 6.29852 4.67218 6.38431V7.11932L5.11714 6.84169V6.38431C5.11714 6.29852 5.01747 6.22937 4.89466 6.22937Z" fill="var(--fill-0, #FFE100)"/>
<path id="Vector_6" fill-rule="evenodd" clip-rule="evenodd" d="M5.11708 5.84844V5.46765C5.11708 5.3454 5.06372 5.239 4.97058 5.17585C4.87744 5.11208 4.75551 5.09963 4.6365 5.1407C4.63327 5.14132 4.31374 5.24242 3.45089 5.24242C2.58739 5.24242 2.26334 5.1407 2.2614 5.14039C2.14206 5.09932 2.01917 5.1127 1.92635 5.17554C1.83321 5.239 1.77985 5.3454 1.77985 5.46765V6.84018L2.10293 7.11925V5.46765C2.10293 5.44401 2.10972 5.43156 2.11296 5.42939C2.11619 5.42752 2.1301 5.42472 2.1537 5.43281C2.16826 5.4381 2.51819 5.55352 3.45089 5.55352C4.38359 5.55352 4.72964 5.4381 4.74355 5.43344C4.76683 5.42535 4.78074 5.42752 4.78397 5.42939C4.78753 5.43156 4.79368 5.44401 4.79368 5.46765V5.7638C4.77718 5.76973 4.76134 5.77532 4.7387 5.7828L4.65235 5.81205C4.64911 5.81326 4.31503 5.91937 3.45089 5.91937C2.98098 5.91937 2.67019 5.88793 2.49296 5.86151C2.40596 5.8512 2.32252 5.90659 2.30862 5.99122C2.29503 6.07615 2.35551 6.15549 2.44348 6.16856C2.63235 6.19654 2.96028 6.23011 3.45089 6.23011C4.38359 6.23011 4.74452 6.11006 4.75972 6.10505L4.8438 6.07644C4.92368 6.05001 4.96152 6.03728 5.02976 6.00337C5.05628 5.98967 5.07536 5.96912 5.08992 5.94608C5.0938 5.9405 5.09638 5.93555 5.0993 5.92991C5.11126 5.90538 5.11838 5.87953 5.11611 5.85218C5.11611 5.85091 5.11708 5.84965 5.11708 5.84844Z" fill="var(--fill-0, #FFE100)"/>
<path id="Vector_7" fill-rule="evenodd" clip-rule="evenodd" d="M5.44423 9.12183C5.49974 9.12183 5.54911 9.06085 5.55998 8.97316C5.57203 8.87413 5.52975 8.77919 5.46573 8.76019C5.35683 8.72876 5.2392 8.70175 5.11707 8.67688V9.04479C5.22337 9.06707 5.32683 9.09114 5.42226 9.11895C5.42959 9.12073 5.43691 9.12183 5.44423 9.12183Z" fill="var(--fill-0, #3071B7)"/>
<path id="Vector_8" fill-rule="evenodd" clip-rule="evenodd" d="M1.28575 9.12183C1.29655 9.12183 1.30769 9.12039 1.31848 9.1182C1.46262 9.08993 1.61895 9.06523 1.77982 9.04272V8.67688C1.59598 8.70193 1.41806 8.72985 1.25372 8.76255C1.15971 8.78069 1.09739 8.8758 1.11549 8.9738C1.13117 9.06126 1.20428 9.12183 1.28575 9.12183Z" fill="var(--fill-0, #3071B7)"/>
<path id="Vector_9" fill-rule="evenodd" clip-rule="evenodd" d="M6.51919 9.12164C6.45292 9.19914 6.34992 9.26685 6.22325 9.32719C6.51228 9.43687 6.58114 9.53187 6.58114 9.56221C6.58114 9.76194 5.47537 10.1505 3.44896 10.1505C1.42159 10.1505 0.315522 9.76194 0.315522 9.56221C0.315522 9.53124 0.385322 9.43658 0.673682 9.32719C0.547032 9.26685 0.443753 9.19914 0.377742 9.12164C0.125388 9.24693 0 9.39213 0 9.56221C0 10.2693 2.25603 10.4565 3.44896 10.4565C4.64124 10.4565 6.89694 10.2693 6.89694 9.56221C6.89694 9.39213 6.77125 9.24693 6.51919 9.12164Z" fill="var(--fill-0, #3071B7)"/>
<path id="Vector_10" fill-rule="evenodd" clip-rule="evenodd" d="M6.07411 10.3852C6.06772 10.2947 5.99028 10.2288 5.911 10.2344C5.82775 10.2417 5.76516 10.3207 5.77155 10.4113L5.92494 12.5174C5.92615 12.5339 5.92615 12.548 5.92586 12.5593C5.91705 12.5533 5.90611 12.5454 5.89396 12.5352L3.84968 10.7826C3.62365 10.5895 3.27094 10.5902 3.04703 10.7832L1.00275 12.5352C0.990901 12.5457 0.979967 12.5533 0.971158 12.5593C0.970548 12.548 0.970548 12.5339 0.972068 12.5174L1.12518 10.412C1.13156 10.3211 1.06928 10.2417 0.985736 10.2347C0.903409 10.2288 0.828975 10.295 0.822595 10.3856L0.669478 12.491C0.65186 12.7365 0.754846 12.8346 0.817736 12.8712C0.845988 12.8874 0.88761 12.9038 0.941081 12.9038C1.00761 12.9038 1.09237 12.8778 1.19111 12.7931L3.23539 11.0409C3.34871 10.9433 3.54801 10.9437 3.66132 11.0405L5.70591 12.7931C5.88331 12.946 6.01579 12.9075 6.0793 12.8709C6.14246 12.8346 6.24517 12.7365 6.22755 12.491L6.07411 10.3852Z" fill="var(--fill-0, #A560A2)"/>
<path id="Vector_11" fill-rule="evenodd" clip-rule="evenodd" d="M6.07452 6.25463C6.00992 6.22279 5.8764 6.19343 5.70378 6.35032L5.01383 6.97381L4.71043 7.24781L3.64578 8.21007C3.53868 8.30703 3.35755 8.30674 3.25105 8.21071L2.1861 7.2481L1.883 6.97381L1.19275 6.35003C1.01981 6.19435 0.886918 6.22308 0.822295 6.25463C0.758277 6.28612 0.653299 6.37358 0.669075 6.60717L0.789529 8.44706L0.811373 8.78284L0.823205 8.96478L0.825024 8.99017C0.874781 9.01982 0.943049 9.05131 1.0274 9.08344C1.06107 9.09628 1.09748 9.10883 1.13723 9.12167L0.970962 6.5873C0.970357 6.57723 0.970052 6.56801 0.970052 6.56041C0.976425 6.56496 0.983098 6.57078 0.990382 6.57751L3.04868 8.4379C3.26895 8.63608 3.62697 8.637 3.84785 8.43761L5.90617 6.5778C5.91371 6.57078 5.92039 6.56496 5.92649 6.56041C5.92649 6.56801 5.92649 6.57723 5.92586 6.5873L5.75958 9.12167C5.80236 9.10791 5.84151 9.09415 5.87761 9.08039C5.95833 9.04947 6.02385 9.0189 6.07181 8.99017L6.07365 8.96478L6.10699 8.44798L6.22807 6.60717C6.24321 6.37358 6.13854 6.28612 6.07452 6.25463Z" fill="var(--fill-0, #A9CD36)"/>
<path id="Vector_12" fill-rule="evenodd" clip-rule="evenodd" d="M5.63415 8.45434C5.7032 8.45434 5.76562 8.42769 5.78099 8.38848C5.79878 8.34345 5.74752 8.29889 5.66611 8.28899C5.51898 8.27091 5.30853 8.24828 5.11707 8.23187V8.40103C5.28862 8.41629 5.47074 8.43638 5.60189 8.45233C5.61275 8.45365 5.6233 8.45434 5.63415 8.45434Z" fill="var(--fill-0, #54C2F0)"/>
<path id="Vector_13" fill-rule="evenodd" clip-rule="evenodd" d="M1.26123 8.45434C1.27169 8.45434 1.28244 8.45348 1.2929 8.45233C1.361 8.44398 1.57101 8.41934 1.77982 8.40028V8.23187C1.548 8.25168 1.30484 8.28041 1.22987 8.28956C1.14921 8.29941 1.09843 8.34374 1.11575 8.38848C1.13099 8.42763 1.19253 8.45434 1.26123 8.45434Z" fill="var(--fill-0, #54C2F0)"/>
<path id="Vector_14" fill-rule="evenodd" clip-rule="evenodd" d="M6.06564 8.4552L6.04353 8.81033C6.117 8.86255 6.14066 8.90147 6.14066 8.9112C6.14066 8.9397 6.11078 8.97442 6.05597 9.01271C6.04756 9.01852 6.03916 9.0244 6.02954 9.03021C5.98032 9.06067 5.91307 9.09314 5.83027 9.1259C5.79319 9.14047 5.75303 9.15509 5.70912 9.16966C5.51732 9.2342 5.26169 9.29713 4.94378 9.34838C4.84602 9.36392 4.74233 9.37883 4.63242 9.39184C4.26563 9.43624 3.83532 9.46514 3.33775 9.46514C2.83957 9.46514 2.40895 9.43624 2.04185 9.39184C1.93225 9.37883 1.82856 9.36392 1.73079 9.34838C1.41289 9.29679 1.15695 9.2342 0.965455 9.16966C0.924668 9.15607 0.887302 9.14277 0.852739 9.12913C0.766179 9.0951 0.696121 9.06165 0.645057 9.03021C0.635097 9.02405 0.627002 9.01824 0.618279 9.01271C0.563792 8.97442 0.53359 8.9397 0.53359 8.9112C0.53359 8.90147 0.556319 8.86255 0.631049 8.81033L0.608629 8.45422C0.354554 8.5817 0.222534 8.73473 0.222534 8.9112C0.222534 8.99682 0.254294 9.07397 0.310028 9.14467C0.375104 9.22677 0.476921 9.2984 0.601778 9.36231C1.24195 9.68922 2.54689 9.78912 3.33775 9.78912C4.12801 9.78912 5.43263 9.68922 6.07278 9.36231C6.19766 9.2984 6.29917 9.22677 6.36458 9.14467C6.42031 9.07397 6.45203 8.99682 6.45203 8.9112C6.45203 8.73542 6.3188 8.58267 6.06564 8.4552Z" fill="var(--fill-0, #54C2F0)"/>
<path id="Vector_15" fill-rule="evenodd" clip-rule="evenodd" d="M3.44815 5.1171C2.70007 5.1171 1.80867 5.04151 1.80867 4.6819C1.80867 4.60447 1.80867 4.39973 2.68289 4.21855C2.76752 4.2008 2.85604 4.25221 2.8755 4.33484C2.89463 4.41717 2.83983 4.49888 2.75228 4.51694C2.53956 4.56101 2.32198 4.62742 2.20233 4.68037C2.36706 4.73882 2.76103 4.81105 3.44815 4.81105C4.08792 4.81105 4.47411 4.74739 4.657 4.69047C4.40213 4.59529 3.86158 4.45879 3.39043 4.36147C3.31617 4.34616 3.26299 4.28404 3.26299 4.21212V3.61379C3.24354 3.61227 3.22408 3.61013 3.20755 3.60829C2.26686 3.49321 1.55737 2.72075 1.55737 1.81149C1.55737 0.812555 2.40564 0 3.44847 0C4.49098 0 5.33957 0.812555 5.33957 1.81149C5.33957 2.41899 5.02407 2.98273 4.49519 3.31969C4.41996 3.36682 4.32042 3.34815 4.27047 3.27898C4.22022 3.2089 4.23999 3.11371 4.31426 3.06659C4.75363 2.78625 5.01563 2.31738 5.01563 1.81149C5.01563 0.981494 4.31263 0.305741 3.44847 0.305741C2.58399 0.305741 1.88131 0.981494 1.88131 1.81149C1.88131 2.56773 2.4692 3.20981 3.24905 3.305C3.31585 3.31357 3.42999 3.31754 3.42999 3.31754C3.51819 3.32061 3.58726 3.38794 3.58726 3.47026V4.0897C5.0873 4.4086 5.08762 4.57142 5.08762 4.67976C5.08762 5.04089 4.1959 5.1171 3.44815 5.1171Z" fill="var(--fill-0, #F29600)"/>
<path id="Vector_16" fill-rule="evenodd" clip-rule="evenodd" d="M5.02464 12.3965C5.02806 12.3763 5.02806 12.3551 5.02247 12.334C5.00226 12.2507 4.91799 12.2006 4.83466 12.2202C4.82937 12.2214 4.27342 12.3551 3.42518 12.3551C2.57663 12.3551 2.01632 12.2214 2.01041 12.2202C1.92584 12.2 1.84343 12.2513 1.82322 12.3343C1.81825 12.3542 1.81794 12.3738 1.82074 12.3931C1.82105 12.3971 1.81887 12.4008 1.81918 12.4055C1.82043 12.4173 1.94014 13.5715 3.42331 13.5715C4.9068 13.5715 5.02527 12.4229 5.0262 12.4114C5.02682 12.4064 5.02464 12.4018 5.02464 12.3965ZM3.42317 13.2606C2.57151 13.2606 2.27861 12.8293 2.17911 12.569C2.43065 12.611 2.86503 12.666 3.42503 12.666C3.98503 12.666 4.41817 12.611 4.66847 12.569C4.57084 12.8268 4.28011 13.2606 3.42317 13.2606Z" fill="var(--fill-0, #E8528D)"/>
<path id="Vector_17" fill-rule="evenodd" clip-rule="evenodd" d="M92.9233 1.90249C92.9089 1.8359 92.8524 1.78696 92.7684 1.78015C92.6999 1.78015 92.6475 1.81391 92.6216 1.87524L89.209 9.76718L85.8103 1.87585C85.7862 1.81979 85.7251 1.78046 85.6503 1.78046H85.6491C85.5795 1.78665 85.5213 1.83714 85.5075 1.90281L83.4342 11.5707C83.425 11.6166 83.4359 11.6636 83.4664 11.6999C83.497 11.7361 83.5419 11.7565 83.5897 11.7565H84.1786C84.2529 11.7565 84.3186 11.7048 84.3347 11.6336L85.8887 4.34254L89.0622 11.6952C89.0864 11.7538 89.144 11.7919 89.209 11.7919C89.2735 11.7919 89.3317 11.7544 89.3559 11.6965L92.5427 4.34131L94.0972 11.6336C94.1122 11.7048 94.1778 11.7565 94.2527 11.7565H94.8417C94.8889 11.7565 94.9338 11.7361 94.9643 11.6999C94.9948 11.6636 95.0063 11.6166 94.9966 11.5707L92.9233 1.90249Z" fill="var(--fill-0, #E8528D)"/>
<path id="Vector_18" fill-rule="evenodd" clip-rule="evenodd" d="M26.5291 1.78015H25.9225C25.8298 1.78015 25.7541 1.85659 25.7541 1.95097V5.88409H20.3V1.95097C20.3 1.85659 20.2243 1.78015 20.1313 1.78015H19.5247C19.4316 1.78015 19.356 1.85659 19.356 1.95097V11.6207C19.356 11.7151 19.4316 11.7919 19.5247 11.7919H20.1313C20.2243 11.7919 20.3 11.7151 20.3 11.6207V6.80266H25.7541V11.6207C25.7541 11.7151 25.8298 11.7919 25.9225 11.7919H26.5291C26.6222 11.7919 26.6978 11.7151 26.6978 11.6207V1.95097C26.6978 1.85659 26.6222 1.78015 26.5291 1.78015Z" fill="var(--fill-0, #FFE100)"/>
<path id="Vector_19" fill-rule="evenodd" clip-rule="evenodd" d="M34.0016 1.6615C31.2262 1.6615 28.8814 3.98296 28.8814 6.73073C28.8814 9.47848 31.2262 11.7999 34.0016 11.7999C36.7761 11.7999 39.1209 9.47848 39.1209 6.73073C39.1209 3.98296 36.7761 1.6615 34.0016 1.6615ZM38.1862 6.73079C38.1862 8.99225 36.2696 10.9026 34.0016 10.9026C31.7327 10.9026 29.816 8.99225 29.816 6.73079C29.816 4.46903 31.7327 2.55862 34.0016 2.55862C36.2696 2.55862 38.1862 4.46903 38.1862 6.73079Z" fill="var(--fill-0, #A9CD36)"/>
<path id="Vector_20" fill-rule="evenodd" clip-rule="evenodd" d="M65.1297 1.6615C62.3546 1.6615 60.0101 3.98296 60.0101 6.73073C60.0101 9.47848 62.3546 11.7999 65.1297 11.7999C67.9049 11.7999 70.2493 9.47848 70.2493 6.73073C70.2493 3.98296 67.9049 1.6615 65.1297 1.6615ZM69.3149 6.73079C69.3149 8.99225 67.3982 10.9026 65.1297 10.9026C62.8612 10.9026 60.9451 8.99225 60.9451 6.73079C60.9451 4.46903 62.8612 2.55862 65.1297 2.55862C67.3982 2.55862 69.3149 4.46903 69.3149 6.73079Z" fill="var(--fill-0, #3071B7)"/>
<path id="Vector_21" fill-rule="evenodd" clip-rule="evenodd" d="M77.0386 1.6615C74.2635 1.6615 71.919 3.98296 71.919 6.73073C71.919 9.47848 74.2635 11.7999 77.0386 11.7999C79.8138 11.7999 82.1583 9.47848 82.1583 6.73073C82.1583 3.98296 79.8138 1.6615 77.0386 1.6615ZM77.0386 10.9026C74.7702 10.9026 72.854 8.99225 72.854 6.73079C72.854 4.46903 74.7702 2.55862 77.0386 2.55862C79.3071 2.55862 81.2238 4.46903 81.2238 6.73079C81.2238 8.99225 79.3071 10.9026 77.0386 10.9026Z" fill="var(--fill-0, #A35FA2)"/>
<path id="Vector_22" fill-rule="evenodd" clip-rule="evenodd" d="M15.2011 6.43745L14.4551 6.19696C13.5761 5.90874 13.1308 5.34821 13.1308 4.5316C13.1308 3.63109 13.6553 2.66164 14.8072 2.66164C15.2498 2.66164 15.6439 2.71497 16.3416 3.38467L16.3803 3.42335C16.4362 3.48105 16.5426 3.47949 16.5946 3.42522L17.0057 3.01754C17.0393 2.98791 17.0589 2.94455 17.0589 2.89838C17.0589 2.85503 17.042 2.81448 17.0115 2.78422L16.9646 2.73806C16.6508 2.42707 15.9976 1.78015 14.8072 1.78015C13.3636 1.78015 12.2748 2.96295 12.2748 4.5316C12.2748 5.83855 12.9498 6.70196 14.2795 7.09745L14.8205 7.26182C15.4976 7.46553 16.2751 7.84138 16.2751 8.95121C16.2751 9.70856 15.78 10.9101 14.4512 10.9101C13.6111 10.9101 13.0528 10.2173 12.753 9.84548L12.6865 9.7628C12.6314 9.68985 12.5024 9.69451 12.4583 9.7491L12.0783 10.1418L12.0429 10.1905C12.0018 10.2494 12.0048 10.3296 12.0505 10.3857L12.0846 10.4272C12.467 10.9041 13.1786 11.7919 14.4512 11.7919C16.1917 11.7919 17.1312 10.328 17.1312 8.95121C17.1312 7.28272 16.1551 6.74439 15.2011 6.43745Z" fill="var(--fill-0, #F29600)"/>
<path id="Vector_23" fill-rule="evenodd" clip-rule="evenodd" d="M51.5893 1.8486C51.5595 1.80566 51.5103 1.78015 51.4573 1.78015H50.8666C50.8022 1.78015 50.7445 1.8178 50.7197 1.87598L47.4807 9.55846L44.9067 1.88656C44.8857 1.82309 44.825 1.78015 44.7559 1.78015H44.1432C44.0923 1.78015 44.0447 1.8038 44.0146 1.84362C43.9852 1.88376 43.9765 1.93541 43.992 1.98239L45.2011 5.62621L43.5428 9.55846L40.9692 1.88656C40.9481 1.82309 40.8871 1.78015 40.8183 1.78015H40.2053C40.1548 1.78015 40.1071 1.8038 40.077 1.84362C40.0473 1.88376 40.0389 1.93541 40.0544 1.98239L43.2733 11.6849C43.294 11.7465 43.3517 11.7894 43.418 11.7919H43.4242C43.4883 11.7919 43.5465 11.7542 43.571 11.696L45.6112 6.86271L47.2109 11.6849C47.2317 11.7465 47.2892 11.7894 47.3556 11.7919H47.3621C47.4259 11.7919 47.4844 11.7542 47.5089 11.696L51.6041 1.9936C51.624 1.94599 51.6184 1.89154 51.5893 1.8486Z" fill="var(--fill-0, #00A63C)"/>
<path id="Vector_24" fill-rule="evenodd" clip-rule="evenodd" d="M58.5367 11.4243L55.592 7.1681C57.1886 7.07483 58.1746 6.06863 58.1746 4.51675C58.1746 3.56186 57.8182 2.8066 57.1448 2.33304C56.4384 1.82092 55.6063 1.82092 54.8719 1.82092H53.6841C53.5914 1.82092 53.5162 1.89586 53.5162 1.98851V11.5197C53.5162 11.6124 53.5914 11.6873 53.6841 11.6873H54.2904C54.3827 11.6873 54.4583 11.6124 54.4583 11.5197V7.17466H54.5062L57.5649 11.6148C57.5959 11.6603 57.6478 11.6873 57.703 11.6873H58.3985C58.4607 11.6873 58.5177 11.6531 58.5471 11.5975C58.5764 11.5421 58.5724 11.4759 58.5367 11.4243ZM57.2317 4.49128C57.2317 5.05315 57.0096 5.55469 56.6195 5.86907C56.1925 6.24032 55.6611 6.27049 55.061 6.27049H54.4581V2.72516L54.9786 2.72453C55.4431 2.72453 55.9291 2.73977 56.3203 2.92571C56.9925 3.22421 57.2317 3.93035 57.2317 4.49128Z" fill="var(--fill-0, #54C2F0)"/>
</g>
</svg>
