<svg width="40" height="40" viewBox="0 0 40 40" fill="none" xmlns="http://www.w3.org/2000/svg">
<g clip-path="url(#clip0_24_59)">
<rect width="18.0469" height="10.7292" rx="5.36458" fill="white"/>
<rect y="14.6354" width="18.0469" height="10.7292" rx="5.36458" fill="white"/>
<rect y="29.2708" width="18.0469" height="10.7292" rx="5.36458" fill="white"/>
<path d="M21.9531 10.7658V1.41923C21.9531 0.63541 22.6518 0 23.5137 0H38.2803C39.8082 0 40.4258 1.79033 39.1717 2.58411L24.4051 11.9307C23.3704 12.5856 21.9531 11.9122 21.9531 10.7658Z" fill="white"/>
<path d="M21.9531 29.2342V38.5808C21.9531 39.3646 22.6518 40 23.5137 40H38.2803C39.8082 40 40.4258 38.2097 39.1717 37.4159L24.4051 28.0693C23.3704 27.4144 21.9531 28.0878 21.9531 29.2342Z" fill="white"/>
<path d="M37.3849 9.48825L22.6915 18.7088C21.707 19.3266 21.707 20.6734 22.6915 21.2912L37.3849 30.5118C38.4985 31.2106 40 30.4692 40 29.2206V10.7794C40 9.53082 38.4985 8.78945 37.3849 9.48825Z" fill="#CC0000"/>
</g>
<defs>
<clipPath id="clip0_24_59">
<rect width="40" height="40" fill="white"/>
</clipPath>
</defs>
</svg>
